<svg xmlns="http://www.w3.org/2000/svg" xmlns:xlink="http://www.w3.org/1999/xlink" width="22" height="22" version="1.1" viewBox="0 0 22 22"><title>emoji-food-color</title><desc>Created with Sketch.</desc><defs><path id="path-1" d="M0,0 L12,0 L12,18 L0,18 L0,0 Z"/></defs><g id="General-Playground" fill="none" fill-rule="evenodd" stroke="none" stroke-width="1"><g id="emoji-food-color"><g id="Page-1" transform="translate(5.000000, 2.000000)"><path id="Fill-1" fill="#282B2E" d="M7.0002,9.9999 L5.0002,9.9999 L3.9992,9.9999 L3.9992,10.9999 L3.9992,16.9999 L3.9992,17.9999 L5.0002,17.9999 L7.0002,17.9999 L8.0002,17.9999 L8.0002,16.9999 L8.0002,10.9999 L8.0002,9.9999 L7.0002,9.9999 Z M5.0002,10.9999 L7.0002,10.9999 L7.0002,16.9999 L5.0002,16.9999 L5.0002,10.9999 Z"/><g id="Group-9"><path id="Fill-2" fill="#FFB36E" d="M9,14 L3,14 C1.895,14 1,13.105 1,12 L1,6 C1,3.239 3.239,1 6,1 L6,1 C8.761,1 11,3.239 11,6 L11,12 C11,13.105 10.105,14 9,14"/><path id="Fill-4" fill="#282B2E" d="M6,0 C2.692,0 0,2.692 0,6 L0,12 C0,13.654 1.346,15 3,15 L9,15 C10.654,15 12,13.654 12,12 L12,6 C12,2.692 9.308,0 6,0 M6,1 C8.761,1 11,3.239 11,6 L11,12 C11,13.105 10.105,14 9,14 L3,14 C1.895,14 1,13.105 1,12 L1,6 C1,3.239 3.239,1 6,1"/><mask id="mask-2" fill="#fff"><use xlink:href="#path-1"/></mask><path id="Fill-6" fill="#282B2E" d="M8,11 L7,11 L7,5 L8,5 L8,11 Z" mask="url(#mask-2)"/><path id="Fill-8" fill="#282B2E" d="M5,11 L4,11 L4,5 L5,5 L5,11 Z" mask="url(#mask-2)"/></g></g></g></g></svg>