<svg xmlns="http://www.w3.org/2000/svg" xmlns:xlink="http://www.w3.org/1999/xlink" width="22" height="22" version="1.1" viewBox="0 0 22 22"><title>emoji-recent-color</title><desc>Created with Sketch.</desc><defs><path id="path-1" d="M0,0 L18,0 L18,18 L0,18 L0,0 Z"/></defs><g id="General-Playground" fill="none" fill-rule="evenodd" stroke="none" stroke-width="1"><g id="emoji-recent-color"><g id="Page-1" transform="translate(2.000000, 2.000000)"><path id="Fill-1" fill="#F0F7FF" d="M9,1 C13.411,1 17,4.589 17,9 C17,13.411 13.411,17 9,17 C4.589,17 1,13.411 1,9 C1,4.589 4.589,1 9,1"/><path id="Fill-3" fill="#282B2E" d="M9,0 C4.029,0 0,4.029 0,9 C0,13.971 4.029,18 9,18 C13.971,18 18,13.971 18,9 C18,4.029 13.971,0 9,0 M9,1 C13.411,1 17,4.589 17,9 C17,13.411 13.411,17 9,17 C4.589,17 1,13.411 1,9 C1,4.589 4.589,1 9,1"/><mask id="mask-2" fill="#fff"><use xlink:href="#path-1"/></mask><path id="Fill-5" fill="#282B2E" d="M9,10 L8,10 L8,5 L9,5 L9,10 Z" mask="url(#mask-2)"/><path id="Fill-7" fill="#282B2E" d="M12,10 L9,10 L9,9 L12,9 L12,10 Z" mask="url(#mask-2)"/></g></g></g></svg>