<svg xmlns="http://www.w3.org/2000/svg" xmlns:xlink="http://www.w3.org/1999/xlink" width="22" height="22" version="1.1" viewBox="0 0 22 22"><title>emoji-travel</title><desc>Created with Sketch.</desc><defs><path id="path-1" d="M0,0 L18,0 L18,15 L0,15 L0,0 Z"/></defs><g id="General-Playground" fill="none" fill-rule="evenodd" stroke="none" stroke-width="1"><g id="emoji-travel"><g id="Page-1" transform="translate(2.000000, 4.000000)"><path id="Fill-1" fill="#8E95A5" d="M6,1.001 L12.999,1.001 L12.999,0 L6,0 L6,1.001 Z"/><path id="Fill-2" fill="#8E95A5" d="M9,3.667 L10,3.667 L10,1 L9,1 L9,3.667 Z"/><path id="Fill-3" fill="#FFF" d="M8,8 L11,8 L11,4 L8,4 L8,8 Z"/><path id="Fill-4" fill="#8E95A5" d="M12,3.0001 L11,3.0001 L8,3.0001 L7,3.0001 L7,4.0001 L7,8.0001 L7,9.0001 L8,9.0001 L11,9.0001 L12,9.0001 L12,8.0001 L12,4.0001 L12,3.0001 Z M11,8.0001 L8,8.0001 L8,4.0001 L11,4.0001 L11,8.0001 Z"/><g id="Group-14"><path id="Fill-5" fill="#FFF" d="M14,6 L14,8 L5,8 L5,6 L2,6 L1,6 L1,8 L2,8 L2,9 C2,11.761 4.239,14 7,14 L12,14 C14.761,14 17,11.761 17,9 L17,6 L14,6 Z"/><mask id="mask-2" fill="#fff"><use xlink:href="#path-1"/></mask><path id="Fill-7" fill="#8E95A5" d="M17,3 L14,3 L14,2 L17,2 L17,3 Z" mask="url(#mask-2)"/><path id="Fill-9" fill="#8E95A5" d="M4,3 L1,3 L1,2 L4,2 L4,3 Z" mask="url(#mask-2)"/><path id="Fill-10" fill="#8E95A5" d="M17.626,10 L2,10 L2,9 L17.626,9 L17.626,10 Z" mask="url(#mask-2)"/><path id="Fill-11" fill="#8E95A5" d="M3,6 L2,6 L2,3 L3,3 L3,6 Z" mask="url(#mask-2)"/><path id="Fill-12" fill="#8E95A5" d="M16,6 L15,6 L15,3 L16,3 L16,6 Z" mask="url(#mask-2)"/><path id="Fill-13" fill="#8E95A5" d="M18,5 L17,5 L14,5 L13,5 L13,6 L13,7 L6,7 L6,6 L6,5 L5,5 L2,5 L1,5 L0,5 L0,6 L0,8 L0,9 L1,9 L1,9 C1,12.308 3.692,15 7,15 L12,15 C15.308,15 18,12.308 18,9 L18,6 L18,5 Z M17,6 L17,9 C17,11.761 14.761,14 12,14 L7,14 C4.239,14 2,11.761 2,9 L2,8 L1,8 L1,6 L2,6 L5,6 L5,8 L14,8 L14,6 L17,6 L17,6 Z" mask="url(#mask-2)"/></g></g></g></g></svg>