<svg xmlns="http://www.w3.org/2000/svg" xmlns:xlink="http://www.w3.org/1999/xlink" width="171" height="230" version="1.1" viewBox="0 0 171 230"><title>Group</title><desc>Created with Sketch.</desc><g id="Welcome" fill="none" fill-rule="evenodd" stroke="none" stroke-width="1"><g id="icon-dm-empty" transform="translate(-20.000000, -5.000000)"><g id="Group"><g id="Welcome"><g id="//-Channels"><g id="==-Text-Channels"><g id="Group"><g id="Group-Copy-11" opacity=".08"><rect id="Guide" width="240" height="40" x="0" y="0"/><circle id="Avatar" cx="35" cy="20" r="15" fill="#DADDDF"/><rect id="Rectangle-3185" width="44" height="10" x="60" y="9" fill="#FFF" rx="5"/><rect id="Rectangle-3185" width="118" height="6" x="60" y="24" fill="#FFF" fill-opacity=".2" rx="5"/></g><g id="Group-Copy-11" opacity=".07" transform="translate(0.000000, 40.000000)"><rect id="Guide" width="240" height="40" x="0" y="0"/><circle id="Avatar" cx="35" cy="20" r="15" fill="#DADDDF"/><rect id="Rectangle-3185" width="37" height="10" x="60" y="9" fill="#FFF" rx="5"/><rect id="Rectangle-3185" width="130.5" height="6" x="60" y="24" fill="#FFF" fill-opacity=".2" rx="5"/></g><g id="Group-Copy-11" opacity=".05" transform="translate(0.000000, 80.000000)"><rect id="Guide" width="240" height="40" x="0" y="0"/><circle id="Avatar" cx="35" cy="20" r="15" fill="#DADDDF"/><rect id="Rectangle-3185" width="54" height="10" x="60" y="9" fill="#FFF" rx="5"/><rect id="Rectangle-3185" width="90" height="6" x="60" y="24" fill="#FFF" fill-opacity=".2" rx="5"/></g><g id="Group-Copy-11" opacity=".04" transform="translate(0.000000, 120.000000)"><rect id="Guide" width="240" height="40" x="0" y="0"/><circle id="Avatar" cx="35" cy="20" r="15" fill="#DADDDF"/><rect id="Rectangle-3185" width="44" height="10" x="60" y="9" fill="#FFF" rx="5"/><rect id="Rectangle-3185" width="118" height="6" x="60" y="24" fill="#FFF" fill-opacity=".2" rx="5"/></g><g id="Group-Copy-11" opacity=".03" transform="translate(0.000000, 160.000000)"><rect id="Guide" width="240" height="40" x="0" y="0"/><circle id="Avatar" cx="35" cy="20" r="15" fill="#DADDDF"/><rect id="Rectangle-3185" width="38" height="10" x="60" y="9" fill="#FFF" rx="5"/><rect id="Rectangle-3185" width="118" height="6" x="60" y="24" fill="#FFF" fill-opacity=".2" rx="5"/></g><g id="Group-Copy-11" opacity=".01" transform="translate(0.000000, 200.000000)"><rect id="Guide" width="240" height="40" x="0" y="0"/><circle id="Avatar" cx="35" cy="20" r="15" fill="#DADDDF"/><rect id="Rectangle-3185" width="44" height="10" x="60" y="9" fill="#FFF" rx="5"/><rect id="Rectangle-3185" width="118" height="6" x="60" y="24" fill="#FFF" fill-opacity=".2" rx="5"/></g></g></g></g></g></g></g></g></svg>