<svg xmlns="http://www.w3.org/2000/svg" xmlns:svg="http://www.w3.org/2000/svg" style="enable-background:new 0 0 45 45" id="svg2" version="1.1" viewBox="0 0 45 45" xml:space="preserve"><metadata id="metadata8"/><defs id="defs6"><clipPath id="clipPath16" clipPathUnits="userSpaceOnUse"><path id="path18" d="M 0,36 36,36 36,0 0,0 0,36 Z"/></clipPath></defs><g id="g10" transform="matrix(1.25,0,0,-1.25,0,45)"><g id="g12"><g id="g14" clip-path="url(#clipPath16)"><g id="g20" transform="translate(19,36)"><path id="path22" d="M 0,0 C -1.721,0 -3.343,-0.406 -4.794,-1.111 -5.186,-1.042 -5.588,-1 -6,-1 c -3.866,0 -7,-3.134 -7,-7 l 0,-12 0.018,0 c 0.183,-6.467 5.471,-11.656 11.982,-11.656 6.511,0 11.799,5.189 11.982,11.656 l 0.018,0 0,9 C 11,-4.925 6.075,0 0,0" style="fill:#ffac33;fill-opacity:1;fill-rule:nonzero;stroke:none"/></g><g id="g24" transform="translate(27,9)"><path id="path26" d="m 0,0 -17,0 0,-9 21,0 0,5 C 4,-1.791 2.209,0 0,0" style="fill:#9268ca;fill-opacity:1;fill-rule:nonzero;stroke:none"/></g><g id="g28" transform="translate(9,31)"><path id="path30" d="m 0,0 0,-12 c 0,-3.917 2.507,-7.24 6,-8.477 L 6,-23 c 0,-1.657 1.343,-3 3,-3 1.657,0 3,1.343 3,3 l 0,2.523 c 3.493,1.237 6,4.56 6,8.477 L 18,0 0,0 Z" style="fill:#ffdc5d;fill-opacity:1;fill-rule:nonzero;stroke:none"/></g><g id="g32" transform="translate(26.999,31)"><path id="path34" d="m 0,0 0,1 -18.999,0 0,-1 0,-6 c 6,0 6,6 6,6 0,0 2,-7 14,-7 l 0,7 L 0,0 Z" style="fill:#ffac33;fill-opacity:1;fill-rule:nonzero;stroke:none"/></g><path id="path36" d="m 16.262,26.708 -4.01,0 0,4.703 4.01,0 0,-4.703 z" style="fill:#ffac33;fill-opacity:1;fill-rule:nonzero;stroke:none"/><g id="g38" transform="translate(18.734,17.6143)"><path id="path40" d="m 0,0 1.827,-0.691 c 0,0 -6.529,-13.746 -7.413,-15.022 -0.884,-1.277 -1.87,-2.055 -4.57,-1.761 L 0,0 Z" style="fill:#7450a8;fill-opacity:1;fill-rule:nonzero;stroke:none"/></g><path id="path42" d="m 27,0 -1,0 0,4 1,0 0,-4 z" style="fill:#7450a8;fill-opacity:1;fill-rule:nonzero;stroke:none"/><g id="g44" transform="translate(14.9844,7.6094)"><path id="path46" d="m 0,0 c 0,0 -2.359,-4.422 -2.865,-5.335 -0.276,-0.497 -1.305,-2.009 -2.322,-2.009 0,0 2.213,-0.121 3.121,1.682 1.285,2.553 1.957,3.787 2.425,4.646 0,0 -0.125,0.329 -0.203,0.485 C 0.039,-0.297 0,0 0,0" style="fill:#7450a8;fill-opacity:1;fill-rule:nonzero;stroke:none"/></g><g id="g48" transform="translate(18.734,17.6143)"><path id="path50" d="m 0,0 -4.084,-6.952 c 0.116,-0.047 0.231,-0.097 0.35,-0.139 l 0,-2.523 c 0,-0.594 0.178,-1.144 0.476,-1.61 2.195,4.449 5.085,10.533 5.085,10.533 L 0,0 Z" style="fill:#ef9645;fill-opacity:1;fill-rule:nonzero;stroke:none"/></g><g id="g52" transform="translate(20.0225,12.5945)"><path id="path54" d="m 0,0 -5.269,0 c -0.39,0 -0.708,0.319 -0.708,0.709 0,0.389 0.318,0.708 0.708,0.708 L 0,1.417 C 0.39,1.417 0.709,1.098 0.709,0.709 0.709,0.319 0.39,0 0,0" style="fill:#df1f32;fill-opacity:1;fill-rule:nonzero;stroke:none"/></g><g id="g56" transform="translate(15.7848,12.5945)"><path id="path58" d="m 0,0 2.706,0 c 0.24,0.5 0.468,0.975 0.68,1.417 l -2.553,0 L 0,0 Z" style="fill:#a0041e;fill-opacity:1;fill-rule:nonzero;stroke:none"/></g><g id="g60" transform="translate(22,20)"><path id="path62" d="m 0,0 c -0.553,0 -1,0.448 -1,1 l 0,1 C -1,2.552 -0.553,3 0,3 0.553,3 1,2.552 1,2 L 1,1 C 1,0.448 0.553,0 0,0" style="fill:#662113;fill-opacity:1;fill-rule:nonzero;stroke:none"/></g><g id="g64" transform="translate(13.5127,28.1537)"><path id="path66" d="m 0,0 c 0.945,0.291 1.598,-0.508 1.77,-1.195 l 0.284,-1.14 0.756,2.155 c 0.365,1.042 1.507,1.591 2.549,1.225 l 3.774,-1.324 c 1.043,-0.365 1.591,-1.507 1.226,-2.549 l -2.648,-7.549 c 0,0 -0.331,-0.944 -1.275,-0.613 l -5.662,1.987 -0.612,1.274 0.345,0.984 -1.226,4.93 C -0.891,-1.127 -0.677,-0.208 0,0" style="fill:#ef9645;fill-opacity:1;fill-rule:nonzero;stroke:none"/></g><g id="g68" transform="translate(22,23)"><path id="path70" d="m 0,0 c -0.553,0 -1,-0.448 -1,-1 l 0,-1 c 0,-0.552 0.447,-1 1,-1 0.001,0 0.002,10e-4 0.003,10e-4 l 0.866,2.466 C 0.7,-0.22 0.381,0 0,0" style="fill:#4f140b;fill-opacity:1;fill-rule:nonzero;stroke:none"/></g><g id="g72" transform="translate(12.5133,28.3432)"><path id="path74" d="m 0,0 c 0.687,0.171 1.383,-0.247 1.555,-0.934 l 0.284,-1.14 0.755,2.155 c 0.366,1.042 1.508,1.591 2.55,1.225 l 3.774,-1.324 c 1.042,-0.366 1.591,-1.507 1.225,-2.549 l -2.648,-7.549 c 0,0 -0.331,-0.944 -1.274,-0.613 l -5.662,1.986 -0.613,1.275 0.346,0.984 -1.227,4.929 C -1.106,-0.867 -0.687,-0.171 0,0" style="fill:#ffdc5d;fill-opacity:1;fill-rule:nonzero;stroke:none"/></g><g id="g76" transform="translate(18.744,23.9463)"><path id="path78" d="M 0,0 0.944,-0.331 2.599,4.387 1.655,4.718 0,0 Z" style="fill:#ef9645;fill-opacity:1;fill-rule:nonzero;stroke:none"/></g><g id="g80" transform="translate(15.9131,24.9394)"><path id="path82" d="M 0,0 0.944,-0.331 2.599,4.387 1.655,4.718 0,0 Z" style="fill:#ef9645;fill-opacity:1;fill-rule:nonzero;stroke:none"/></g><g id="g84" transform="translate(14.2784,6.1499)"><path id="path86" d="M 0,0 C 0,0 -1.719,-3.579 -2.106,-4.416 -2.794,-5.9 -4.278,-6.15 -4.278,-6.15 c -8,0 -3.622,8.343 -3.622,8.343 L -1.469,14.039 5.072,11.459 0,0 Z" style="fill:#9268ca;fill-opacity:1;fill-rule:nonzero;stroke:none"/></g></g></g></g></svg>