<svg xmlns="http://www.w3.org/2000/svg" xmlns:xlink="http://www.w3.org/1999/xlink" width="100" height="130" version="1.1" viewBox="0 0 100 130"><title>icon-file-large-document</title><desc>Created with Sketch.</desc><defs><filter id="filter-1" width="200%" height="200%" x="-50%" y="-50%" filterUnits="objectBoundingBox"><feOffset dx="0" dy="2" in="SourceAlpha" result="shadowOffsetOuter1"/><feGaussianBlur in="shadowOffsetOuter1" result="shadowBlurOuter1" stdDeviation="7"/><feColorMatrix in="shadowBlurOuter1" result="shadowMatrixOuter1" type="matrix" values="0 0 0 0 0 0 0 0 0 0 0 0 0 0 0 0 0 0 0.07 0"/><feMerge><feMergeNode in="shadowMatrixOuter1"/><feMergeNode in="SourceGraphic"/></feMerge></filter><filter id="filter-2" width="200%" height="200%" x="-50%" y="-50%" filterUnits="objectBoundingBox"><feOffset dx="-1" dy="3" in="SourceAlpha" result="shadowOffsetOuter1"/><feGaussianBlur in="shadowOffsetOuter1" result="shadowBlurOuter1" stdDeviation="0"/><feColorMatrix in="shadowBlurOuter1" result="shadowMatrixOuter1" type="matrix" values="0 0 0 0 0 0 0 0 0 0 0 0 0 0 0 0 0 0 0.07 0"/><feMerge><feMergeNode in="shadowMatrixOuter1"/><feMergeNode in="SourceGraphic"/></feMerge></filter></defs><g id="Drag-&amp;-Drop" fill="none" fill-rule="evenodd" stroke="none" stroke-width="1"><g id="Desktop-HD---Drag-&amp;-Drop,-Droplet" transform="translate(-548.000000, -868.000000)"><g id="Group" transform="translate(239.000000, 880.000000)"><g id="icon-file-large-document" transform="translate(324.000000, 0.000000)"><g id="Group" stroke-width="2"><path id="Rectangle-113" fill="#F4F6FC" stroke="#7289DA" d="M0,6.99306484 C0,3.68318653 2.67945063,1 5.99088792,1 L50.2815992,1 C54.8549257,1 70,16.4899443 70,21.238384 L70,94.9997026 C70,98.3135753 67.3201398,101 64.0015788,101 L5.99842118,101 C2.68558464,101 0,98.312319 0,95.0069352 L0,6.99306484 Z" filter="url(#filter-1)"/><path id="Path" fill="#F4F6FC" stroke="#7289DA" d="M51,3.99706188 C51,0.684976062 52.8947487,-0.105251323 55.2418213,2.24182129 L68.7581787,15.7581787 C71.1008719,18.1008719 70.3133742,20 67.0029381,20 L54.0013869,20 C52.3437667,20 51,18.6569187 51,16.9986131 L51,3.99706188 Z" filter="url(#filter-2)"/><path id="Path-156" stroke="#C9D2F0" d="M46,5 L7.98543461,5 C5.22563406,5 2.98837366,7.22898489 2.98837366,10.0021863 L2.98837366,17" opacity=".6"/><path id="Path-157" stroke="#C9D2F0" stroke-opacity=".6" d="M54,7 L54,14.5023733 C54,15.8817744 55.1096621,17 56.5,17 L59,17"/></g><path id="Rectangle-128" fill="#697EC4" d="M8,75 L62,75 L62,78 L8,78 L8,75 Z M8,82 L62,82 L62,85 L8,85 L8,82 Z M8,68 L62,68 L62,71 L8,71 L8,68 Z M8,19 L42,19 L42,22 L8,22 L8,19 Z M8,61 L62,61 L62,64 L8,64 L8,61 Z M8,54 L62,54 L62,57 L8,57 L8,54 Z M8,47 L62,47 L62,50 L8,50 L8,47 Z M8,40 L62,40 L62,43 L8,43 L8,40 Z M8,33 L62,33 L62,36 L8,36 L8,33 Z M8,26 L42,26 L42,29 L8,29 L8,26 Z" opacity=".6"/></g></g></g></g></svg>