<svg xmlns="http://www.w3.org/2000/svg" xmlns:xlink="http://www.w3.org/1999/xlink" id="Layer_1" x="0" y="0" enable-background="new 0 0 50 50" version="1.1" viewBox="0 0 50 50" xml:space="preserve"><g id="tool_-_computer_monitor_mac"><g><path fill="#738BD7" fill-rule="evenodd" d="M39,9H11c-1.1,0-2,0.9-2,2v22c0,1.1,0.9,2,2,2h8v4h-2v2h16v-2h-2 v-4h8c1.1,0,2-0.9,2-2V11C41,9.9,40.1,9,39,9z M29,39h-8v-4h8V39z M39,32c0,0.6-0.4,1-1,1H12c-0.6,0-1-0.4-1-1v-3h28V32z M39,27 H11V12c0-0.6,0.4-1,1-1h26c0.6,0,1,0.4,1,1V27z" clip-rule="evenodd"/></g></g></svg>